<svg xmlns="http://www.w3.org/2000/svg" width="500" height="250" viewBox="0 0 500 250"><style type="text/css">.st0{fill:#75A4E9;} .st1{fill:none;} .st2{fill:#F2F2F2;} .st3{font-family:&apos;Arial&apos;; font-weight: bold;} .st4{font-size:16px;} .st5{fill:#003366;} .st6{font-family:&apos;Arial&apos;;} .st7{font-size:12px;} .st8{fill:#9FC7F7;} .st9{font-size:14px;} .st10{fill:#FF0000;} .st11{fill:#FFFFFF;} .st12{fill:#FF7BAC;} .st13{fill:none;stroke:#FF0000;stroke-width:3;stroke-miterlimit:10;} .st14{fill:none;stroke:#FF0000;stroke-width:3;stroke-miterlimit:10;stroke-dasharray:3,3;} .st15{fill:none;stroke:#C9C7C9;stroke-width:2;stroke-miterlimit:10;} .st16{fill:none;stroke:#C9C7C9;stroke-width:2;stroke-miterlimit:10;stroke-dasharray:11,11;} .st17{fill:#C9C7C9;} .st18{fill:none;stroke:#C9C7C9;stroke-width:2;stroke-miterlimit:10;stroke-dasharray:12.049,12.049;} .st19{fill:none;stroke:#00FF18;stroke-width:2;stroke-miterlimit:10;} .st20{fill:none;stroke:#00FF18;stroke-width:2;stroke-miterlimit:10;stroke-dasharray:11.5935,11.5935;} .st21{fill:#00FF18;} .st22{fill:none;stroke:#00FF18;stroke-width:2;stroke-miterlimit:10;stroke-dasharray:11.995,11.995;} .st23{fill:#D6D6D6;} .st24{fill:#0071BC;}</style><path id="bg_1_" class="st0" d="M0 0h500v250H0z"/><path class="st1" d="M9 10.5h256V32H9z"/><text id="title" transform="translate(9 21.956)" class="st2 st3 st4">Reduce vertical speed</text><path class="st1" d="M11.5 214H194v32H11.5z"/><text id="text5" transform="translate(11.5 222.592)"><tspan x="0" y="0" class="st5 st6 st7">1. TCAS detects a</tspan><tspan x="0" y="14.4" class="st5 st6 st7">threat and issues a &apos;descend&apos; RA</tspan></text><path class="st1" d="M211.5 214H394v32H211.5z"/><text id="text6" transform="translate(211.5 222.592)"><tspan x="0" y="0" class="st5 st6 st7">2. TCAS reduces the strength</tspan><tspan x="0" y="14.4" class="st5 st6 st7">of the &apos;descend&apos; RA.</tspan></text><path class="st1" d="M11 42.5h109v32H11z"/><text id="text1" transform="translate(48.393 52.524)"><tspan x="0" y="0" class="st8 st3 st9">OWN</tspan><tspan x="-18.7" y="16.8" class="st8 st3 st9">AIRCRAFT</tspan></text><path class="st1" d="M377 20.8h109v18.5H377z"/><text id="text2" transform="translate(403.163 30.851)" class="st8 st3 st9">THREAT</text><path class="st1" d="M9.5 115h119v20H9.5z"/><text id="text3" transform="translate(9.452 123.592)" class="st10 st6 st7">&quot;Descend, descend&quot;</text><path class="st1" d="M8.2 150h171.5v20H8.2z"/><text id="text4" transform="translate(8.218 158.592)" class="st10 st6 st7">&quot;Adjust vertical speed, adjust&quot;</text><g id="acft1"><path d="M34.3 81c2.2 2.3 4.4 4.5 6.6 6.8 3.5 3.7 7.1 6.4 12.7 6.2 10.1-.4 20.2 0 30.3-.1 6.8-.1 13.4-.1 19.1 4.5v2.7c-4.7 3-9.8 4.1-15.3 4-2.3 0-4.8-.4-6.6 1.8h-4.9c-2.3-.6-4.6-1.5-6.9-1.7-5.8-.5-11.7-.1-17.4-1.1-8.2-1.5-16.2-3.8-23.8-7.4v-1.8c1.5-.3 2.9-.7 4.6-1.1-1.6-3.6-3.1-7.1-4.6-10.5v-2.2c2.1-.1 4.1-.1 6.2-.1zm33.5 20.2c-2.7 0-5.4-.1-8.2-.1 0-.3 0-.8-.2-.9-2.2-1.1-4.3-2.2-6.9-1.9-1.4.1-2.4.2-2.4 1.7-2.7.9-2.2-1.7-3.3-2.4 1.4-1.1 2.5-2.1 4-.3.2.3 1 .2 1.5.2H80.1v.9c-1.1 0-2.3-.1-3.4 0-.5 0-1 .4-1.4.6.5.3 1 .6 1.5.8.5.1 1.1-.1 1.5.1 1.8.7 4.6.3 4.1 3.6 6.6.8 16.1-.3 19-3.4-1-2.3-3-1.5-5-1.5.4-.7.7-1.2 1.3-2.2-3.8-.4-7.1-1.1-10.5-1.1-14.5 0-28.9.2-43.4.2-1.6 0-3 .2-3.9 1.6-.9-.2-1.8-.5-2.9-.8.9-.3 1.6-.5 2.9-.9h-5.7c.6.3.9.4 1.4.7-1 .1-1.8.1-2.6.1v.3c.7.3 1.5.6 2.2.9.1.2.1.4.2.5 11.1 4.2 22.5 6.6 34.4 5.7.5 0 1-.4 1.6-.6 0-.2-.1-.5-.1-.7-2.3 0-4.5.1-6.8 0-1.9-.1-3.7-.2-5.6-.4 2.4 0 4.7 0 7.1-.1.5 0 1.2-.4 1.8-.6 2.3.7 4.6 1.2 7.2 0h-7.2zM29.7 82.8c1.5 3.6 3 7.4 4.6 11.1.2.5 1 .9 1.5.9 3.3-.1 6.6-.3 9.3-.5-2.7-2.9-5.6-6-8.5-9.2-1.8-1.9-3.6-3.8-6.9-2.3zm46.1 22.5c1.7 0 3.4.4 4.8-.2.8-.3.9-2.3 1.4-4-2.5.1-4.3.2-6.2.3v3.9zm-11.4-6.8c3 .4 6.1 3.2 9.1.8v-.8h-9.1z"/><path class="st11" d="M40 97.1c.9-1.4 2.3-1.6 3.9-1.6 14.5 0 28.9-.2 43.4-.2 3.4 0 6.7.7 10.5 1.1-.6.9-.9 1.4-1.3 2.2 2 0 4-.8 5 1.5-2.9 3.1-12.4 4.2-19 3.4.4-3.2-2.3-2.9-4.1-3.6-.5-.2-1.1 0-1.5-.1-.5-.2-1-.5-1.5-.8.5-.2.9-.5 1.4-.6 1.1-.1 2.3 0 3.4 0v-.9H52.4c-.5 0-1.3.1-1.5-.2-1.4-1.8-2.6-.8-4 .3 1.1.8.7 3.3 3.3 2.4 0-1.5 1-1.5 2.4-1.7 2.6-.3 4.8.9 6.9 1.9.2.1.1.6.2.9-.3.3-.5.6-.8.9 1.9.1 3.7.3 5.6.4 2.3.1 4.5 0 6.8 0 0 .2.1.5.1.7-.5.2-1 .5-1.6.6-11.9.8-23.3-1.5-34.4-5.7-.1 0-.1-.3-.2-.5 1.6-.2 3.2-.3 4.8-.4zm41.2.7v.4h9.4v-.4h-9.4zm12.7 2.3c.3-3.6.2-3.7-2.4-3.2.1 1.1.2 2.1.4 3.2h2zM29.7 82.8c3.3-1.5 5.1.4 6.9 2.3 2.9 3.1 5.8 6.3 8.5 9.2-2.7.2-6 .4-9.3.5-.5 0-1.3-.4-1.5-.9-1.6-3.7-3.1-7.5-4.6-11.1zM75.8 105.3v-3.8c1.9-.1 3.7-.2 6.2-.3-.5 1.7-.6 3.6-1.4 4-1.3.5-3.1.1-4.8.1zM64.4 98.5h9.1v.8c-3 2.4-6.1-.4-9.1-.8zM40 97.1l-4.8.3c-.7-.3-1.5-.6-2.2-.9v-.3c.8 0 1.6-.1 2.6-.1-.5-.2-.8-.4-1.4-.7h5.7c-1.2.4-2 .6-2.9.9 1.2.3 2.1.6 3 .8zM58.8 102c.3-.3.5-.6.8-.9 2.7 0 5.4.1 8.2.1-.6.2-1.2.6-1.9.7-2.3 0-4.7 0-7.1.1zM67.8 101.2H75c-2.6 1.2-4.9.7-7.2 0z"/><path d="M81.2 97.8h9.3v.4h-9.4c.1-.1.1-.3.1-.4zM93.9 100.1h-2c-.1-1.1-.3-2.2-.4-3.2 2.5-.5 2.6-.4 2.4 3.2z"/></g><g id="acft2"><path d="M486.4 11.8c.3.7.5 1.4.8 2.1-.2 3.8-.5 7.5-.7 11.4 1.7-.2 3.2-.4 4.7-.6.2.6.4 1.1.6 1.7-5.9 6-12.6 11-19.9 15.1-5 2.9-10.7 4.5-16 7-2.1 1-3.9 2.6-5.9 4-1.5.6-3.1 1.1-4.6 1.7-2.4-1.5-4.6-.3-6.8.6-5.1 2-10.3 2.7-15.7 1.4-.3-.8-.6-1.7-.9-2.5 3.7-6.2 10-8.5 16.4-10.7 9.5-3.3 18.9-7.1 28.5-10.2 5.3-1.7 7.8-5.6 9.8-10.2 1.3-2.9 2.6-5.8 3.8-8.6 2-.8 4-1.5 5.9-2.2zm-37.2 35c2.9.2 4.9-1 6.8-2.5.7 0 1.4.2 2 0 2.3-.7 4.5-1.5 6.7-2.3-1.7.8-3.4 1.6-5.2 2.3-2.1.8-4.2 1.6-6.4 2.3 0 .2.1.5.1.7.6 0 1.1.1 1.7 0 11.5-3.3 21.4-9.4 30.4-17.2.1-.1 0-.3 0-.5.6-.5 1.2-1.1 1.8-1.6 0-.1-.1-.2-.1-.3-.7.2-1.5.4-2.5.8l1.1-1.1c-1.8.7-3.3 1.2-5.4 2 1.3 0 2.1-.1 3-.1-1 .7-1.7 1.2-2.5 1.7-1.4-1-2.7-.7-4.2-.2-13.6 4.9-27.3 9.7-40.9 14.6-3.2 1.2-6.1 2.9-9.5 4.6.9.7 1.3 1 2 1.6-1.9.7-4.1.6-4.2 3.1 3.8 2 13.1-.3 19.1-3.3-1.5-2.9 1.2-3.5 2.7-4.8.4-.3 1-.3 1.4-.6.4-.3.8-.8 1.1-1.2-.5 0-1.1-.2-1.5 0-1.1.3-2.1.7-3.2 1.1l-.3-.9c1.9-.7 3.7-1.4 5.6-2 6.9-2.5 13.7-5 20.6-7.5.5-.2 1.2-.4 1.3-.7.7-2.2 2.2-1.6 3.8-1.1-.8 1.1.5 3.4-2.3 3.4-.5-1.4-1.5-1.1-2.8-.8-2.6.7-4.2 2.4-5.9 4.2-.1.1.1.6.2.9-2.5 1-5.1 1.9-7.6 2.9-2.3.8-4.4 1.6-6.9 2.5zm30.6-28.2c-1.7 3.9-3.3 7.9-4.9 11.5 2.6-.8 5.8-1.7 8.9-2.7.5-.2 1.1-.9 1.1-1.4.2-4 .4-8.1.5-12-3.5-.2-4.6 2.1-5.6 4.6zm-31.2 28.7c-1.8.5-3.5 1.1-5.9 1.8 1.1 1.4 1.8 3.2 2.7 3.3 1.4.1 3-.9 4.5-1.5-.6-1.5-.9-2.4-1.3-3.6zm1.1-3.6c.1.2.2.5.3.7 3.7 1.2 5.6-2.4 8.3-3.9-2.9 1.2-5.7 2.2-8.6 3.2z"/><path class="st11" d="M485.4 29.6c0 .2.1.4 0 .5-9 7.7-18.9 13.9-30.4 17.2-.5.1-1.1 0-1.7 0 0-.2-.1-.5-.1-.7 2.1-.8 4.3-1.5 6.4-2.3 1.7-.7 3.4-1.5 5.2-2.3-.3-.2-.7-.4-1-.5-.1-.3-.3-.8-.2-.9 1.7-1.7 3.3-3.5 5.9-4.2 1.3-.3 2.3-.6 2.8.8 2.8-.1 1.5-2.3 2.3-3.4-1.7-.6-3.1-1.1-3.8 1.1-.1.3-.8.5-1.3.7-6.9 2.5-13.7 5-20.6 7.5-1.9.7-3.7 1.4-5.6 2l.3.9c1.1-.4 2.1-.8 3.2-1.1.5-.1 1 0 1.5 0-.4.4-.7.9-1.1 1.2-.4.3-1 .3-1.4.6-1.5 1.3-4.2 1.9-2.7 4.8-6 3-15.2 5.2-19.1 3.3.2-2.5 2.4-2.4 4.2-3.1-.7-.5-1.1-.9-2-1.6 3.4-1.7 6.3-3.4 9.5-4.6 13.6-5 27.2-9.7 40.9-14.6 1.5-.6 2.8-.9 4.2.2 1.5-.6 3-1 4.6-1.5zm-52 19.3c.1.1.1.3.2.4 2.9-1.1 5.9-2.1 8.8-3.2-.1-.1-.1-.3-.2-.4-2.9 1.1-5.9 2.2-8.8 3.2zm-.4 2.6c-.3-1.1-.5-2.1-.8-3.2-2.5.4-2.6.5-1.1 3.8.7-.1 1.2-.3 1.9-.6zM485.5 14c-3.6-.3-4.7 2.1-5.7 4.5-1.7 3.9-3.3 7.9-4.9 11.5 2.6-.8 5.8-1.7 8.9-2.7.5-.2 1.1-.9 1.1-1.4.3-3.9.5-8 .6-11.9zM449.9 50.9c-.5-1.5-.9-2.4-1.3-3.6-1.8.5-3.5 1.1-5.9 1.8 1.1 1.4 1.8 3.2 2.7 3.3 1.4.1 2.9-.9 4.5-1.5zM458.3 40.6c-2.9 1-5.7 2.1-8.6 3.1.1.2.2.5.3.7 3.7 1.3 5.6-2.3 8.3-3.8zM480.7 31c1.5-.4 3.1-.9 4.6-1.3.6-.5 1.2-1.1 1.8-1.6 0-.1-.1-.2-.1-.3-.7.2-1.5.4-2.5.8l1.1-1.1c-1.8.7-3.3 1.2-5.4 2 1.3 0 2.1-.1 3-.1-1 .5-1.7 1-2.5 1.6zM464.7 42c-.3-.2-.7-.4-1-.5-2.5 1-5.1 1.9-7.6 2.9.7 0 1.4.2 2 0 2.1-.8 4.4-1.6 6.6-2.4zM456 44.3c-2.2.8-4.3 1.6-6.8 2.5 2.9.2 4.9-1 6.8-2.5z"/><path d="M442.2 45.7c-2.9 1.1-5.9 2.1-8.8 3.2.1.1.1.3.2.4 2.9-1.1 5.9-2.1 8.8-3.2-.1-.1-.2-.2-.2-.4zM431.1 52.2c.7-.2 1.2-.4 1.9-.7-.3-1.1-.5-2.1-.8-3.2-2.5.5-2.6.6-1.1 3.9z"/></g><g id="CPA"><path class="st1" d="M242.5 29.1h39.3v16h-39.3z"/><text id="title_7_" transform="translate(249.457 37.65)" class="st10 st3 st7">CPA</text><path class="st12" d="M261 44v139"/><path class="st13" d="M261.5 44v2"/><path class="st14" d="M261.5 49v131"/><path class="st13" d="M261.5 182v1"/></g><g id="arrow1"><path class="st15" d="M108 100h6"/><path class="st16" d="M125 100h106"/><path class="st15" d="M237 100h6"/><path class="st17" d="M257 100l-19.9 8.1 4.7-8.1-4.7-8.1z"/></g><g id="arrow2"><path class="st15" d="M278.6 96.3l5.8-1.6"/><path class="st18" d="M296 91.5l110.4-30.3"/><path class="st15" d="M412.2 59.6L418 58"/><path class="st17" d="M265 100l21.3 2.6-6.7-6.6 2.4-9.1z"/></g><g id="arrow4"><path class="st19" d="M212.1 83.3h6"/><path class="st20" d="M229.7 83.2c14.5-.1 29.6-.4 37.3-.2 78.6 2 104.3-10.1 139.7-21.5"/><path class="st19" d="M412.3 59.7c1.9-.6 3.8-1.2 5.7-1.7"/><path class="st21" d="M198 83l19.7 8.5-4.5-8.2 4.8-8.1z"/></g><g id="arrow3"><path class="st19" d="M108 100c2 0 4 0 6 .1"/><path class="st22" d="M126 100.6c26.7 2 46.9 8.4 61 14.4 28.5 12 37.9 24.6 64 33 17.5 5.7 35 8 49.9 8.8"/><path class="st19" d="M306.9 157.1c2.1.1 4.1.1 6 .1"/><path class="st21" d="M327 157l-19.8 8.4 4.6-8.2-4.8-8.1z"/></g><g id="buttonStart"><path class="st23" d="M481.6 240h-54.8c-3.2 0-5.8-2.6-5.8-5.8v-8.9c0-3.2 2.6-5.8 5.8-5.8h54.8c3.2 0 5.8 2.6 5.8 5.8v8.9c0 3.2-2.6 5.8-5.8 5.8z"/><path class="st1" d="M425 224.2h35v15h-35z"/><text transform="translate(429.655 234.191)" class="st24 st3 st9">Start</text><path class="st24" d="M470.2 223.7l9.5 5.5-9.5 5.4z"/></g><g id="buttonNext"><path class="st23" d="M481.6 240h-54.8c-3.2 0-5.8-2.6-5.8-5.8v-8.9c0-3.2 2.6-5.8 5.8-5.8h54.8c3.2 0 5.8 2.6 5.8 5.8v8.9c0 3.2-2.6 5.8-5.8 5.8z"/><path class="st1" d="M425 224.2h35v15h-35z"/><text transform="translate(429.655 234.191)" class="st24 st3 st9">Next</text><path class="st24" d="M470.2 223.7l9.5 5.5-9.5 5.4z"/></g><g id="buttonReplay"><path class="st23" d="M481.6 240h-68.8c-3.2 0-5.8-2.6-5.8-5.8v-8.9c0-3.2 2.6-5.8 5.8-5.8h68.8c3.2 0 5.8 2.6 5.8 5.8v8.9c0 3.2-2.6 5.8-5.8 5.8z"/><path class="st1" d="M409.5 224.2H460v15h-50.5z"/><text transform="translate(414.09 234.191)" class="st24 st3 st9">Replay</text><path class="st24" d="M479.7 223.7l-9.5 5.5 9.5 5.4z"/></g></svg>