<?xml version="1.0" encoding="utf-8"?>
<!-- Generator: Adobe Illustrator 18.1.1, SVG Export Plug-In . SVG Version: 6.00 Build 0)  -->
<svg version="1.1" id="scene1" xmlns="http://www.w3.org/2000/svg" xmlns:xlink="http://www.w3.org/1999/xlink" x="0px" y="0px"
	 width="500px" height="250px" viewBox="0 0 500 250" enable-background="new 0 0 500 250" xml:space="preserve">
<rect id="bg_1_" fill="#333333" width="500" height="250"/>
<g id="buttonReplay">
	<g>
		

		<g>
			<circle fill="#76B82A" cx="464.76" cy="216.4" r="19.85"/>
		</g>
	</g>
	<g>
		<g>
			<polygon fill="#FFFFFF" points="466.82,200.11 455.89,206.42 466.82,212.73 			"/>
		</g>
	</g>
	<path fill="none" stroke="#FFFFFF" stroke-width="3" stroke-miterlimit="10" d="M465.11,206.07c5.92,0,10.71,4.8,10.71,10.71
		c0,5.92-4.8,10.71-10.71,10.71s-10.71-4.8-10.71-10.71"/>
	<path fill="none" stroke="#FFFFFF" stroke-width="3" stroke-miterlimit="10" d="M465.11,206.07"/>
	<path fill="none" stroke="#FFFFFF" stroke-width="3" stroke-miterlimit="10" d="M454.39,216.79"/>
</g>
<g>
	<rect x="112.5" y="31.5" fill="none" width="265.5" height="190"/>
	<path fill="none" stroke="#FFFFFF" stroke-miterlimit="10" d="M203.4,62.88c0.53,0.19,1.07,0.41,1.63,0.66s1.13,0.49,1.72,0.71
		s1.21,0.42,1.86,0.57s1.34,0.23,2.07,0.23c0.86,0,1.73-0.1,2.6-0.3s1.73-0.5,2.57-0.9s1.64-0.88,2.4-1.45s1.47-1.23,2.11-1.98
		c0.7-0.8,1.29-1.52,1.76-2.17s0.85-1.23,1.14-1.73s0.5-0.95,0.62-1.31s0.19-0.68,0.19-0.95c0-0.39-0.13-0.73-0.4-1.02
		s-0.62-0.53-1.07-0.71s-0.95-0.32-1.51-0.41s-1.15-0.13-1.76-0.13c-0.36,0-0.78,0.01-1.27,0.04s-0.98,0.05-1.48,0.07
		s-0.98,0.04-1.45,0.06s-0.88,0.02-1.22,0.02c-0.52,0-1.05-0.06-1.61-0.18s-1.1-0.31-1.63-0.57s-1.02-0.63-1.48-1.08
		s-0.83-1.02-1.13-1.69c-0.09-0.22-0.18-0.48-0.26-0.77s-0.12-0.62-0.12-0.96c0-0.38,0.03-0.73,0.08-1.07s0.12-0.66,0.2-0.97
		c0.22-0.78,0.58-1.57,1.09-2.38s1.12-1.59,1.83-2.36s1.48-1.51,2.32-2.23s1.7-1.39,2.58-2.03s1.75-1.2,2.6-1.71s1.64-0.94,2.38-1.3
		c1.03-0.5,2.08-0.86,3.15-1.09s2.13-0.34,3.18-0.34c0.63,0,1.22,0.08,1.78,0.25s1.06,0.4,1.49,0.71s0.77,0.7,1.02,1.16
		s0.38,0.99,0.38,1.58c0,0.34-0.04,0.63-0.12,0.87s-0.18,0.43-0.3,0.57s-0.26,0.25-0.41,0.32s-0.3,0.09-0.46,0.09
		c-0.42,0-0.81-0.05-1.16-0.14s-0.69-0.2-1.02-0.32s-0.66-0.23-0.98-0.33s-0.69-0.15-1.08-0.15c-1.16,0-2.33,0.23-3.53,0.69
		s-2.36,1.05-3.49,1.76s-2.2,1.5-3.21,2.38s-1.91,1.73-2.71,2.55c-0.42,0.44-0.73,0.88-0.93,1.31s-0.29,0.85-0.29,1.24
		c0,0.58,0.25,1.03,0.75,1.36s1.11,0.49,1.83,0.49c0.42,0,0.9-0.01,1.43-0.02s1.07-0.04,1.63-0.06s1.09-0.05,1.62-0.07
		s0.99-0.04,1.39-0.04c0.97,0,1.9,0.14,2.79,0.41s1.68,0.68,2.37,1.21s1.24,1.19,1.65,1.98s0.62,1.69,0.62,2.71
		c0,0.63-0.09,1.26-0.28,1.9s-0.45,1.29-0.77,1.93s-0.7,1.29-1.13,1.92s-0.87,1.25-1.34,1.86c-0.84,1.09-1.79,2.13-2.82,3.09
		s-2.14,1.81-3.32,2.53s-2.41,1.29-3.71,1.71s-2.64,0.63-4.02,0.63c-0.59,0-1.2-0.05-1.83-0.16s-1.24-0.27-1.85-0.48
		s-1.18-0.48-1.72-0.8s-1.01-0.68-1.42-1.09s-0.73-0.86-0.97-1.35s-0.36-1.03-0.36-1.61c0-0.28,0.04-0.55,0.13-0.81
		S203.06,62.88,203.4,62.88z"/>
	<path fill="none" stroke="#FFFFFF" stroke-miterlimit="10" d="M237.27,41.77c0-0.38-0.02-0.71-0.06-1s-0.08-0.56-0.13-0.82
		s-0.09-0.51-0.13-0.76s-0.06-0.52-0.06-0.82c0-0.39,0.04-0.77,0.11-1.14s0.19-0.7,0.35-0.98s0.39-0.52,0.67-0.7
		s0.64-0.27,1.08-0.27c0.63,0,1.13,0.13,1.5,0.4s0.66,0.61,0.87,1.02s0.34,0.88,0.41,1.41s0.11,1.04,0.11,1.56
		c0,0.45-0.04,1.16-0.13,2.11s-0.18,2.14-0.27,3.56s-0.18,3.07-0.27,4.95s-0.13,3.95-0.13,6.21c0,0.72,0.03,1.52,0.09,2.4
		s0.19,1.72,0.38,2.52s0.45,1.5,0.8,2.1s0.8,0.99,1.38,1.16c1.44-1.34,2.75-2.8,3.95-4.36s2.28-3.14,3.25-4.73s1.84-3.16,2.63-4.69
		s1.48-2.93,2.11-4.2c0.59-1.23,1.13-2.36,1.61-3.36s0.91-1.94,1.29-2.8s0.72-1.66,1.01-2.4s0.55-1.46,0.79-2.14
		c0.06-0.16,0.16-0.38,0.3-0.68s0.37-0.55,0.68-0.77c0.41-0.3,1.05-0.45,1.95-0.45c0.55,0,0.95,0.12,1.2,0.36s0.38,0.58,0.38,1.02
		c0,0.16,0,0.34-0.01,0.55s-0.05,0.4-0.13,0.57c-0.36,0.95-0.84,2.04-1.43,3.27s-1.21,2.53-1.85,3.9c-0.61,1.3-1.24,2.62-1.9,3.97
		s-1.33,2.68-2.02,3.98s-1.38,2.55-2.07,3.75s-1.38,2.29-2.05,3.29c-0.59,0.89-1.41,2.04-2.44,3.43s-2.4,3.07-4.1,5.03
		c-0.27,0.3-0.53,0.58-0.8,0.86s-0.55,0.52-0.84,0.74s-0.62,0.39-0.96,0.53s-0.72,0.2-1.13,0.2c-0.63,0-1.17-0.13-1.64-0.4
		s-0.89-0.6-1.25-1s-0.68-0.84-0.95-1.32s-0.51-0.95-0.73-1.41c-0.28-0.56-0.52-1.18-0.71-1.85s-0.36-1.37-0.48-2.1
		s-0.22-1.47-0.28-2.23s-0.09-1.5-0.09-2.24c0-0.09,0-0.37,0.01-0.83s0.02-1.05,0.04-1.78s0.03-1.55,0.05-2.47s0.03-1.89,0.05-2.89
		s0.03-2.04,0.04-3.09s0.01-2.07,0.01-3.04V41.77z"/>
	<path fill="none" stroke="#FFFFFF" stroke-miterlimit="10" d="M289.93,51.68c-0.19,0.05-0.52,0.15-1.01,0.3s-1.03,0.34-1.64,0.55
		s-1.25,0.44-1.93,0.68s-1.32,0.47-1.93,0.68s-1.14,0.39-1.59,0.55s-0.76,0.26-0.91,0.3c-0.11,0.02-0.25,0.06-0.42,0.14
		s-0.35,0.16-0.53,0.23s-0.35,0.15-0.52,0.22s-0.29,0.11-0.39,0.11c-0.33,0-0.62-0.07-0.88-0.2s-0.48-0.31-0.67-0.53
		s-0.33-0.48-0.42-0.77s-0.14-0.6-0.14-0.91c0-0.64,0.18-1.15,0.54-1.52s0.79-0.66,1.28-0.86s1-0.32,1.54-0.39s0.97-0.12,1.31-0.16
		c0.05,0,0.14-0.02,0.28-0.07s0.3-0.1,0.47-0.16s0.34-0.12,0.52-0.16s0.31-0.07,0.42-0.07c0.28-0.13,0.72-0.31,1.31-0.56
		s1.24-0.5,1.95-0.76s1.4-0.48,2.1-0.68s1.29-0.29,1.79-0.29c0.56,0,1.06,0.09,1.5,0.27s0.81,0.43,1.13,0.75s0.55,0.7,0.71,1.13
		s0.25,0.9,0.25,1.42c0,0.22-0.02,0.44-0.05,0.67s-0.09,0.5-0.16,0.83c-0.47,1.75-1.18,3.38-2.14,4.89s-2.09,2.88-3.39,4.1
		s-2.73,2.31-4.29,3.25s-3.17,1.71-4.83,2.32l0.02-0.02c-0.27,0.11-0.59,0.22-0.97,0.34s-0.78,0.23-1.2,0.33s-0.82,0.18-1.22,0.25
		s-0.75,0.09-1.04,0.09c-0.61,0-1.13-0.02-1.55-0.06s-0.78-0.09-1.07-0.14s-0.53-0.12-0.73-0.2s-0.37-0.16-0.53-0.23
		c-0.89-0.41-1.71-0.89-2.45-1.46s-1.38-1.23-1.91-1.98s-0.95-1.58-1.24-2.5s-0.45-1.91-0.45-2.99c0-1.16,0.19-2.36,0.56-3.62
		s0.89-2.53,1.55-3.81s1.43-2.55,2.31-3.8s1.84-2.45,2.87-3.6s2.11-2.21,3.22-3.2s2.23-1.85,3.34-2.6c0.67-0.45,1.39-0.91,2.17-1.38
		s1.57-0.89,2.38-1.27s1.64-0.68,2.47-0.93s1.65-0.36,2.45-0.36c0.64,0,1.27,0.09,1.9,0.28s1.19,0.45,1.69,0.79s0.91,0.75,1.22,1.23
		s0.47,1.02,0.47,1.62c0,0.27-0.04,0.55-0.12,0.87c-0.03,0.13-0.09,0.34-0.19,0.66s-0.21,0.55-0.35,0.73l0.05-0.05
		c-0.06,0.2-0.17,0.32-0.32,0.35s-0.3,0.05-0.46,0.05c-0.47,0-0.87-0.12-1.2-0.35s-0.63-0.49-0.91-0.76s-0.56-0.53-0.83-0.76
		s-0.6-0.35-0.97-0.35h-0.63c-1.22,0.27-2.52,0.76-3.89,1.49s-2.75,1.61-4.11,2.65s-2.68,2.2-3.93,3.48s-2.35,2.61-3.3,3.98
		s-1.71,2.77-2.29,4.18s-0.86,2.77-0.86,4.07c0,1.06,0.24,1.97,0.73,2.73s1.19,1.5,2.11,2.24h-0.02c0.48,0.31,1.01,0.58,1.58,0.8
		s1.13,0.33,1.68,0.33c0.56,0,1.18-0.11,1.84-0.33s1.33-0.49,1.99-0.82s1.31-0.69,1.95-1.08s1.21-0.75,1.72-1.08
		c1.66-1.08,3.05-2.36,4.2-3.84s2.08-3.02,2.81-4.62c0.03-0.08,0.06-0.16,0.09-0.23c0.03-0.06,0.05-0.13,0.07-0.2
		S289.92,51.73,289.93,51.68z"/>
	<path fill="none" stroke="#FFFFFF" stroke-miterlimit="10" d="M129.91,121.61c0.23-0.91,0.52-1.96,0.84-3.16s0.68-2.48,1.04-3.82
		s0.74-2.72,1.11-4.13s0.73-2.77,1.05-4.1c0.02-0.06,0.07-0.17,0.16-0.32s0.23-0.3,0.4-0.45s0.39-0.28,0.66-0.39
		s0.58-0.16,0.94-0.16c0.27,0,0.52,0.03,0.77,0.08s0.47,0.14,0.67,0.25s0.35,0.25,0.47,0.43s0.18,0.39,0.18,0.62
		c0,0.05,0,0.1,0,0.15s-0.01,0.11-0.02,0.15l-0.66,2.48c-0.73,2.78-1.48,5.57-2.24,8.37s-1.5,5.6-2.21,8.41
		c-0.03,0.09-0.08,0.21-0.14,0.35s-0.15,0.28-0.26,0.42s-0.24,0.26-0.4,0.35s-0.34,0.14-0.56,0.14c-0.41,0-0.77-0.08-1.08-0.25
		s-0.58-0.37-0.8-0.62s-0.38-0.52-0.49-0.82s-0.16-0.58-0.16-0.84c0-0.08,0-0.15,0-0.21s0.02-0.13,0.05-0.21L129.91,121.61z
		 M136.03,97.35c0.08-0.33,0.22-0.73,0.42-1.2s0.56-0.89,1.08-1.27c0.25-0.14,0.55-0.27,0.91-0.39s0.62-0.18,0.77-0.18
		s0.32,0.05,0.48,0.16s0.31,0.23,0.43,0.35c0.16,0.16,0.3,0.33,0.45,0.52c0.39,0.03,0.64,0.17,0.76,0.42s0.18,0.55,0.18,0.89
		c0,0.25-0.02,0.48-0.07,0.68s-0.09,0.37-0.12,0.49c-0.09,0.33-0.27,0.63-0.54,0.9s-0.57,0.51-0.91,0.7s-0.7,0.35-1.08,0.46
		s-0.7,0.16-0.98,0.16c-0.36,0-0.64-0.06-0.83-0.19s-0.44-0.39-0.74-0.8c-0.17-0.23-0.27-0.42-0.29-0.55s-0.04-0.25-0.04-0.34
		c0-0.17,0.01-0.32,0.04-0.46S136,97.48,136.03,97.35z"/>
	<path fill="none" stroke="#FFFFFF" stroke-miterlimit="10" d="M142.66,121.75c0.13,0,0.24,0.02,0.34,0.05s0.21,0.07,0.34,0.11
		s0.27,0.07,0.42,0.11s0.36,0.05,0.61,0.05c0.73,0,1.55-0.08,2.45-0.23s1.75-0.36,2.54-0.61s1.48-0.54,2.05-0.86s0.89-0.65,0.97-1
		c0.05-0.19,0.07-0.35,0.07-0.49c0-0.27-0.13-0.52-0.39-0.76s-0.58-0.47-0.97-0.69s-0.81-0.42-1.27-0.61s-0.88-0.36-1.27-0.52
		l-0.8-0.33c-0.41-0.16-0.8-0.35-1.2-0.57s-0.75-0.49-1.09-0.79s-0.63-0.64-0.89-1.04s-0.45-0.86-0.57-1.37
		c-0.06-0.22-0.11-0.44-0.15-0.66s-0.06-0.45-0.06-0.7c0-0.41,0.14-0.87,0.41-1.39s0.64-1.04,1.1-1.56s0.98-1.01,1.57-1.48
		s1.2-0.86,1.84-1.17c0.47-0.33,0.92-0.63,1.36-0.89s0.88-0.49,1.32-0.68s0.9-0.34,1.36-0.45s0.95-0.16,1.46-0.16
		c0.47,0,0.98,0.02,1.52,0.07s1.05,0.16,1.5,0.33s0.83,0.43,1.14,0.76s0.46,0.79,0.46,1.35c0,0.17-0.02,0.4-0.07,0.68
		s-0.13,0.56-0.23,0.84s-0.24,0.52-0.4,0.73s-0.34,0.3-0.56,0.3c-0.36,0-0.66-0.07-0.89-0.21s-0.45-0.29-0.63-0.46
		s-0.38-0.32-0.59-0.46s-0.45-0.21-0.75-0.21c-0.36,0-0.78,0.07-1.25,0.2s-0.96,0.31-1.46,0.54s-0.99,0.49-1.46,0.79
		s-0.91,0.6-1.29,0.91s-0.69,0.62-0.93,0.93s-0.35,0.58-0.35,0.83c0,0.27,0.09,0.48,0.26,0.66s0.39,0.32,0.66,0.45
		c0.34,0.19,0.74,0.38,1.18,0.56s0.89,0.38,1.35,0.56s0.89,0.38,1.32,0.56s0.8,0.36,1.11,0.52c0.42,0.22,0.8,0.43,1.14,0.64
		s0.62,0.44,0.86,0.69s0.41,0.53,0.54,0.84s0.19,0.68,0.19,1.1c0,0.2-0.02,0.41-0.05,0.61s-0.08,0.44-0.14,0.7
		c-0.05,0.23-0.13,0.51-0.25,0.82s-0.24,0.62-0.38,0.93s-0.27,0.58-0.41,0.82s-0.26,0.4-0.35,0.48c-0.61,0.56-1.33,1.09-2.16,1.58
		s-1.69,0.92-2.59,1.29s-1.8,0.66-2.7,0.88s-1.72,0.33-2.47,0.33c-0.38,0-0.79-0.07-1.24-0.22s-0.87-0.34-1.25-0.59
		s-0.7-0.52-0.96-0.83s-0.39-0.63-0.39-0.94c0-0.16,0.05-0.33,0.14-0.53s0.21-0.38,0.35-0.54s0.29-0.3,0.46-0.42
		S142.52,121.75,142.66,121.75z"/>
	<path fill="none" stroke="#FFFFFF" stroke-miterlimit="10" d="M188.74,118.61c0-1.31,0.15-2.68,0.45-4.09s0.61-2.77,0.94-4.07
		c-0.41-0.02-0.82-0.08-1.24-0.19s-0.8-0.26-1.15-0.45s-0.63-0.42-0.84-0.69s-0.33-0.59-0.33-0.95c0-0.14,0.03-0.32,0.09-0.54
		s0.15-0.43,0.27-0.64s0.27-0.39,0.46-0.54s0.4-0.22,0.63-0.22h3.14c0.3,0,0.5-0.13,0.61-0.39s0.2-0.51,0.26-0.76
		c0.2-0.91,0.39-1.69,0.57-2.36s0.33-1.23,0.46-1.69s0.22-0.84,0.29-1.13s0.11-0.52,0.11-0.69c0-0.2-0.01-0.4-0.02-0.59
		s-0.02-0.45-0.02-0.77v-0.23c0-0.13,0.01-0.29,0.04-0.49s0.1-0.49,0.22-0.87c0.09-0.3,0.27-0.58,0.52-0.84s0.62-0.4,1.1-0.4
		c0.42,0,0.78,0.09,1.08,0.26s0.54,0.4,0.73,0.68s0.33,0.6,0.42,0.96s0.14,0.72,0.14,1.08c0,0.39-0.04,0.74-0.12,1.05l-1.71,6.56
		c0.84-0.14,1.59-0.27,2.25-0.4s1.31-0.25,1.97-0.38c0.72-0.14,1.34-0.27,1.86-0.4s0.97-0.23,1.35-0.32s0.69-0.16,0.95-0.21
		s0.47-0.08,0.64-0.08c0.25,0,0.5,0.02,0.76,0.06s0.48,0.11,0.68,0.2s0.36,0.23,0.48,0.4s0.19,0.4,0.19,0.68
		c0,0.38-0.07,0.71-0.22,1s-0.34,0.54-0.57,0.75s-0.5,0.38-0.8,0.52s-0.59,0.23-0.89,0.29c-0.25,0.05-0.57,0.12-0.97,0.21
		s-0.84,0.2-1.31,0.3s-0.97,0.23-1.49,0.35s-1.02,0.25-1.5,0.38c-0.72,0.19-1.33,0.34-1.84,0.47s-0.94,0.22-1.3,0.28
		s-0.65,0.11-0.88,0.14s-0.41,0.05-0.55,0.05c-0.3,0.89-0.55,1.77-0.77,2.63s-0.4,1.66-0.55,2.4s-0.26,1.41-0.33,1.99
		s-0.11,1.04-0.11,1.37c0,0.42,0.04,0.82,0.12,1.21s0.21,0.71,0.4,1s0.44,0.5,0.76,0.67s0.72,0.25,1.21,0.25
		c0.83,0,1.64-0.23,2.44-0.68s1.56-1.03,2.29-1.72s1.41-1.46,2.06-2.29s1.25-1.62,1.79-2.37c0.19-0.28,0.43-0.42,0.73-0.42
		c0.09,0,0.21,0.02,0.34,0.05s0.26,0.09,0.39,0.16s0.23,0.18,0.32,0.3s0.13,0.27,0.13,0.45c0,0.13-0.01,0.22-0.02,0.28
		c-0.25,0.97-0.64,1.94-1.16,2.92s-1.06,1.96-1.61,2.94c-0.19,0.34-0.43,0.68-0.74,1.01s-0.64,0.64-1,0.95s-0.73,0.59-1.13,0.87
		s-0.76,0.52-1.1,0.74c-0.59,0.38-1.24,0.63-1.95,0.77s-1.38,0.21-2.04,0.21c-1.02,0-1.92-0.18-2.71-0.55s-1.45-0.87-1.99-1.5
		s-0.95-1.37-1.23-2.21S188.74,119.58,188.74,118.61z"/>
	<path fill="none" stroke="#FFFFFF" stroke-miterlimit="10" d="M226.9,127.23c-0.97,0-1.63-0.21-1.99-0.63s-0.54-1-0.54-1.73
		c0-0.39,0.04-0.81,0.12-1.27s0.18-0.92,0.3-1.41c0.22-0.83,0.46-1.65,0.74-2.47s0.55-1.65,0.82-2.48s0.54-1.67,0.8-2.51
		s0.49-1.68,0.69-2.52c0.02-0.08,0.02-0.18,0.02-0.3c0-0.22-0.05-0.39-0.16-0.52s-0.27-0.19-0.49-0.19c-0.34,0-0.71,0.07-1.11,0.21
		s-0.73,0.3-1,0.47c-1.05,0.7-1.96,1.4-2.75,2.09s-1.51,1.41-2.17,2.16s-1.28,1.55-1.86,2.4s-1.2,1.79-1.84,2.8
		c-0.55,1.02-0.95,1.88-1.22,2.59s-0.51,1.29-0.74,1.72c-0.23,0.44-0.48,0.75-0.76,0.95s-0.7,0.29-1.27,0.29
		c-0.63,0-1.07-0.18-1.32-0.54c-0.26-0.36-0.39-0.83-0.39-1.41c0-0.45,0.07-0.96,0.21-1.52l7.73-30.98
		c0.05-0.19,0.13-0.39,0.23-0.61s0.26-0.42,0.45-0.61s0.41-0.34,0.67-0.47s0.55-0.19,0.88-0.19c0.25,0,0.52,0.01,0.8,0.04
		s0.54,0.07,0.76,0.14s0.41,0.18,0.56,0.34s0.22,0.36,0.22,0.61c0,0.06-0.02,0.19-0.05,0.39s-0.08,0.42-0.14,0.67
		c-0.84,3.39-1.75,6.92-2.71,10.59s-1.93,7.38-2.92,11.13c0.95-1.17,1.95-2.25,2.98-3.22s2.09-1.82,3.18-2.52s2.21-1.25,3.38-1.65
		s2.37-0.6,3.62-0.6c0.8,0,1.41,0.25,1.85,0.76s0.66,1.15,0.66,1.93c0,0.36-0.05,0.71-0.14,1.05c-0.19,0.72-0.4,1.43-0.63,2.12
		s-0.48,1.39-0.73,2.1s-0.5,1.42-0.75,2.14s-0.47,1.47-0.66,2.24c-0.25,0.98-0.42,1.92-0.52,2.8s-0.16,1.59-0.19,2.12
		c-0.03,0.45-0.1,0.89-0.21,1.31s-0.27,0.79-0.48,1.11c-0.21,0.32-0.48,0.58-0.8,0.77S227.34,127.23,226.9,127.23z"/>
	<path fill="none" stroke="#FFFFFF" stroke-miterlimit="10" d="M236.79,116.85c0-0.67,0.18-1.24,0.54-1.71s0.84-0.78,1.43-0.94
		c0.17-0.34,0.44-0.81,0.8-1.39s0.8-1.22,1.34-1.91s1.14-1.38,1.82-2.07s1.43-1.33,2.25-1.9s1.7-1.04,2.65-1.39s1.95-0.54,3.01-0.54
		c0.91,0,1.7,0.11,2.37,0.33s1.23,0.52,1.66,0.91s0.77,0.86,0.98,1.39s0.33,1.12,0.33,1.75c0,0.53-0.07,1.04-0.21,1.52
		c-0.22,0.88-0.63,1.64-1.22,2.3s-1.29,1.23-2.1,1.72s-1.68,0.9-2.63,1.23s-1.89,0.6-2.84,0.82s-1.86,0.39-2.73,0.5
		s-1.63,0.21-2.27,0.27c-0.14,0.28-0.26,0.64-0.36,1.07s-0.15,0.85-0.15,1.25c0,0.91,0.36,1.61,1.08,2.11s1.71,0.75,2.98,0.75
		c0.73,0,1.44-0.08,2.11-0.25s1.31-0.38,1.91-0.63s1.17-0.54,1.7-0.84s1.02-0.61,1.45-0.9c0.56-0.38,1.1-0.69,1.61-0.95
		s0.96-0.39,1.35-0.39s0.64,0.1,0.75,0.29s0.16,0.4,0.16,0.62c0,0.13,0,0.25-0.01,0.36s-0.02,0.21-0.04,0.29
		c-0.08,0.41-0.23,0.81-0.47,1.22s-0.53,0.76-0.89,1.05c-1.63,1.28-3.29,2.2-5,2.74c-1.71,0.55-3.54,0.82-5.47,0.82
		c-0.38,0-0.82-0.02-1.32-0.07s-1.04-0.14-1.58-0.28c-0.55-0.14-1.09-0.34-1.62-0.61s-1-0.62-1.42-1.05s-0.75-0.98-1.01-1.62
		s-0.39-1.41-0.39-2.32c0-0.73,0.1-1.55,0.3-2.46c-0.2-0.03-0.39-0.14-0.57-0.32S236.79,117.19,236.79,116.85z M251.46,110.36
		c0.03-0.08,0.05-0.15,0.05-0.21s0-0.13,0-0.21c0-0.42-0.16-0.74-0.47-0.95s-0.69-0.32-1.13-0.32c-0.69,0-1.36,0.18-2.03,0.54
		s-1.29,0.81-1.88,1.35s-1.11,1.12-1.56,1.73s-0.8,1.18-1.05,1.68c1.13-0.09,2.16-0.25,3.09-0.46s1.75-0.48,2.45-0.8
		s1.26-0.68,1.69-1.08S251.34,110.81,251.46,110.36z"/>
	<path fill="none" stroke="#FFFFFF" stroke-miterlimit="10" d="M300.91,106.65c-0.55,0-1.13,0.13-1.76,0.39s-1.27,0.61-1.95,1.04
		s-1.36,0.93-2.05,1.49s-1.38,1.13-2.05,1.72c-0.34,0.3-0.67,0.57-0.98,0.81s-0.63,0.43-0.94,0.55c-0.22,0.36-0.45,0.83-0.69,1.42
		s-0.48,1.23-0.71,1.92s-0.46,1.41-0.67,2.13s-0.39,1.4-0.53,2.03c-0.08,0.33-0.14,0.65-0.19,0.96s-0.1,0.64-0.16,1
		s-0.14,0.73-0.22,1.14s-0.19,0.86-0.32,1.36c-0.08,0.3-0.2,0.54-0.38,0.71s-0.35,0.32-0.54,0.41s-0.37,0.15-0.54,0.18
		s-0.3,0.04-0.4,0.04c-0.59,0-1.08-0.14-1.45-0.42s-0.56-0.83-0.56-1.64c0-0.22,0.01-0.45,0.02-0.69s0.06-0.51,0.14-0.81
		c0.34-1.48,0.68-2.82,1-4.01s0.64-2.29,0.97-3.3s0.66-1.97,1-2.87s0.68-1.8,1.03-2.72s0.72-1.86,1.1-2.84s0.79-2.06,1.23-3.25
		c0.09-0.27,0.34-0.49,0.74-0.67s0.82-0.27,1.28-0.27c0.59,0,1.08,0.13,1.46,0.4s0.57,0.65,0.57,1.15c0,0.05-0.02,0.13-0.05,0.26
		s-0.08,0.26-0.14,0.4l-1.03,2.44c0.66-0.52,1.34-1.03,2.05-1.55s1.44-0.98,2.19-1.39s1.5-0.75,2.26-1.01s1.5-0.39,2.24-0.39
		c1.5,0,2.67,0.4,3.52,1.21s1.27,2.05,1.27,3.74c0,0.97-0.17,2.07-0.5,3.3s-0.76,2.56-1.27,3.97s-1.05,2.9-1.64,4.45
		s-1.13,3.14-1.63,4.75c-0.14,0.44-0.29,0.8-0.43,1.1s-0.32,0.54-0.53,0.71c-0.2,0.18-0.44,0.31-0.71,0.39s-0.61,0.12-1,0.12
		c-0.61,0-1.03-0.11-1.27-0.34c-0.23-0.23-0.35-0.59-0.35-1.09c0-0.44,0.07-0.97,0.2-1.61s0.32-1.33,0.56-2.09s0.52-1.57,0.84-2.43
		s0.67-1.73,1.04-2.63c0.3-0.72,0.59-1.44,0.88-2.16s0.55-1.41,0.77-2.09s0.41-1.31,0.55-1.92s0.21-1.17,0.21-1.69
		c0-0.48-0.11-0.91-0.32-1.28S301.49,106.65,300.91,106.65z"/>
	<path fill="none" stroke="#FFFFFF" stroke-miterlimit="10" d="M310.45,116.85c0-0.67,0.18-1.24,0.54-1.71s0.84-0.78,1.43-0.94
		c0.17-0.34,0.44-0.81,0.8-1.39s0.8-1.22,1.34-1.91s1.14-1.38,1.82-2.07s1.43-1.33,2.25-1.9s1.7-1.04,2.65-1.39s1.95-0.54,3.01-0.54
		c0.91,0,1.7,0.11,2.37,0.33s1.23,0.52,1.66,0.91s0.77,0.86,0.98,1.39s0.33,1.12,0.33,1.75c0,0.53-0.07,1.04-0.21,1.52
		c-0.22,0.88-0.63,1.64-1.22,2.3s-1.29,1.23-2.1,1.72s-1.68,0.9-2.63,1.23s-1.89,0.6-2.84,0.82s-1.86,0.39-2.73,0.5
		s-1.63,0.21-2.27,0.27c-0.14,0.28-0.26,0.64-0.36,1.07s-0.15,0.85-0.15,1.25c0,0.91,0.36,1.61,1.08,2.11s1.71,0.75,2.98,0.75
		c0.73,0,1.44-0.08,2.11-0.25s1.31-0.38,1.91-0.63s1.17-0.54,1.7-0.84s1.02-0.61,1.45-0.9c0.56-0.38,1.1-0.69,1.61-0.95
		s0.96-0.39,1.35-0.39s0.64,0.1,0.75,0.29s0.16,0.4,0.16,0.62c0,0.13,0,0.25-0.01,0.36s-0.02,0.21-0.04,0.29
		c-0.08,0.41-0.23,0.81-0.47,1.22s-0.53,0.76-0.89,1.05c-1.63,1.28-3.29,2.2-5,2.74c-1.71,0.55-3.54,0.82-5.47,0.82
		c-0.38,0-0.82-0.02-1.32-0.07s-1.04-0.14-1.58-0.28c-0.55-0.14-1.09-0.34-1.62-0.61s-1-0.62-1.42-1.05s-0.75-0.98-1.01-1.62
		s-0.39-1.41-0.39-2.32c0-0.73,0.1-1.55,0.3-2.46c-0.2-0.03-0.39-0.14-0.57-0.32S310.45,117.19,310.45,116.85z M325.13,110.36
		c0.03-0.08,0.05-0.15,0.05-0.21s0-0.13,0-0.21c0-0.42-0.16-0.74-0.47-0.95s-0.69-0.32-1.13-0.32c-0.69,0-1.36,0.18-2.03,0.54
		s-1.29,0.81-1.88,1.35s-1.11,1.12-1.56,1.73s-0.8,1.18-1.05,1.68c1.13-0.09,2.16-0.25,3.09-0.46s1.75-0.48,2.45-0.8
		s1.26-0.68,1.69-1.08S325,110.81,325.13,110.36z"/>
	<path fill="none" stroke="#FFFFFF" stroke-miterlimit="10" d="M337.5,104.94c0.28-0.61,0.6-1.02,0.96-1.23s0.77-0.32,1.24-0.32
		c0.45,0,0.84,0.07,1.15,0.21s0.56,0.33,0.75,0.56s0.32,0.51,0.4,0.82s0.12,0.65,0.12,1.01c0,0.11,0,0.21,0,0.32
		s-0.01,0.21-0.02,0.32c-0.02,0.14-0.05,0.39-0.12,0.76s-0.14,0.8-0.22,1.3s-0.18,1.03-0.28,1.58s-0.2,1.08-0.28,1.58
		s-0.16,0.94-0.23,1.31s-0.12,0.63-0.15,0.77c-0.03,0.16-0.07,0.38-0.12,0.68s-0.09,0.64-0.14,1.02s-0.09,0.79-0.12,1.23
		s-0.05,0.88-0.05,1.31c0,0.42,0.02,0.82,0.05,1.21s0.09,0.72,0.18,1.01s0.2,0.52,0.33,0.69s0.3,0.26,0.5,0.26
		c0.14,0,0.35-0.11,0.62-0.34s0.56-0.5,0.87-0.81s0.61-0.64,0.9-1s0.54-0.64,0.73-0.88c1.02-1.25,1.95-2.52,2.8-3.81
		s1.64-2.59,2.38-3.9c0.28-0.52,0.5-1.04,0.64-1.57s0.32-1.01,0.53-1.44s0.49-0.78,0.86-1.05s0.92-0.41,1.65-0.41
		c0.39,0,0.79,0.13,1.2,0.4s0.69,0.65,0.84,1.15c-0.05,0.58-0.12,1.17-0.21,1.78s-0.18,1.23-0.26,1.86s-0.15,1.26-0.21,1.89
		s-0.09,1.23-0.09,1.83c0,0.92,0.09,1.78,0.28,2.57s0.53,1.46,1.03,2c0.61-0.77,1.21-1.63,1.82-2.6s1.19-1.98,1.77-3.02
		s1.13-2.11,1.65-3.18s1.01-2.09,1.46-3.06c0.03-0.08,0.05-0.15,0.06-0.22s0.01-0.14,0.01-0.22v-0.21c0-0.48,0.14-0.98,0.41-1.5
		s0.6-0.98,0.97-1.41s0.76-0.77,1.16-1.03s0.73-0.4,1-0.4c0.66,0,1.17,0.18,1.55,0.54s0.56,0.84,0.56,1.43
		c0,0.19-0.04,0.42-0.11,0.7s-0.18,0.56-0.34,0.84l-7.9,13.92l-0.59,1.15c-0.25,0.48-0.5,0.95-0.74,1.41s-0.51,0.85-0.8,1.2
		s-0.61,0.62-0.96,0.82s-0.75,0.3-1.21,0.3c-0.61,0-1.15-0.17-1.63-0.52s-0.89-0.77-1.23-1.27s-0.63-1.04-0.86-1.63
		s-0.39-1.11-0.5-1.58l-0.87-3.75c-0.05,0-0.21,0.16-0.49,0.49s-0.63,0.75-1.05,1.27s-0.88,1.08-1.38,1.7s-0.99,1.21-1.46,1.78
		s-0.91,1.09-1.31,1.55s-0.71,0.79-0.93,0.97s-0.45,0.38-0.69,0.56s-0.48,0.35-0.71,0.49s-0.46,0.26-0.67,0.35s-0.39,0.14-0.53,0.14
		c-1.03,0-1.89-0.24-2.57-0.73s-1.22-1.12-1.62-1.9s-0.68-1.65-0.83-2.61s-0.23-1.93-0.23-2.89c0-0.86,0.04-1.73,0.13-2.6
		s0.19-1.74,0.3-2.59s0.24-1.68,0.38-2.47s0.25-1.54,0.34-2.23c0.02-0.13,0.03-0.27,0.04-0.43s0.01-0.33,0.01-0.5v-0.61
		c0-0.25,0-0.48,0.01-0.69S337.45,105.02,337.5,104.94z"/>
	<path fill="none" stroke="#FFFFFF" stroke-miterlimit="10" d="M176.11,158.18c-0.13,0.19-0.29,0.51-0.48,0.97s-0.4,0.99-0.61,1.59
		s-0.42,1.24-0.63,1.91s-0.41,1.3-0.59,1.89s-0.33,1.1-0.46,1.55s-0.2,0.74-0.23,0.88c-0.03,0.17-0.09,0.43-0.18,0.77
		s-0.16,0.64-0.22,0.89c1.75-0.59,3.48-1.09,5.19-1.48s3.43-0.59,5.14-0.59c0.27,0,0.62,0.01,1.05,0.02s0.87,0.07,1.29,0.18
		s0.79,0.26,1.09,0.48s0.46,0.53,0.46,0.94c0,0.02-0.01,0.11-0.02,0.29s-0.06,0.39-0.14,0.62s-0.2,0.47-0.36,0.7
		s-0.39,0.41-0.67,0.52c-0.17-0.02-0.34-0.02-0.5-0.02s-0.33,0-0.5,0c-1.11,0-2.22,0.1-3.34,0.29s-2.24,0.46-3.38,0.8
		s-2.26,0.73-3.39,1.2s-2.25,0.95-3.38,1.46l-2.37,10.24c-0.03,0.27-0.16,0.5-0.39,0.71s-0.45,0.32-0.67,0.32h-0.56
		c-0.59,0-1-0.24-1.23-0.73s-0.34-1.11-0.34-1.88c0-0.64,0.05-1.34,0.16-2.1s0.23-1.5,0.38-2.21s0.27-1.38,0.38-1.97
		s0.16-1.05,0.16-1.36c-0.19-0.27-0.38-0.55-0.56-0.84s-0.28-0.66-0.28-1.1c0-0.69,0.18-1.23,0.54-1.64s0.84-0.8,1.43-1.2
		c0.06-0.05,0.13-0.13,0.2-0.26s0.13-0.27,0.19-0.42s0.1-0.31,0.14-0.47s0.07-0.29,0.11-0.4l0.96-3.47
		c0.38-1.36,0.71-2.55,1.01-3.57s0.57-1.94,0.82-2.75s0.48-1.54,0.69-2.19s0.42-1.28,0.62-1.89c0.06-0.2,0.17-0.49,0.32-0.87
		s0.33-0.74,0.54-1.1s0.45-0.67,0.71-0.94s0.55-0.4,0.87-0.4c0.7,0,1.18,0.06,1.44,0.18s0.43,0.27,0.5,0.46l0.21,0.52
		c0.25-0.03,0.61-0.09,1.07-0.18s0.94-0.18,1.43-0.29s0.95-0.21,1.37-0.32s0.73-0.18,0.91-0.25c1.05-0.28,2.01-0.52,2.88-0.73
		s1.7-0.37,2.48-0.5s1.53-0.23,2.25-0.29s1.45-0.09,2.18-0.09c0.34,0,0.66,0.02,0.96,0.05s0.55,0.09,0.76,0.18s0.38,0.21,0.5,0.38
		s0.19,0.38,0.19,0.64c0,0.14-0.03,0.32-0.09,0.53s-0.16,0.42-0.3,0.63s-0.33,0.41-0.57,0.6s-0.54,0.33-0.9,0.42
		c-0.11,0.03-0.3,0.07-0.59,0.13s-0.61,0.11-0.97,0.18s-0.76,0.13-1.17,0.2s-0.81,0.14-1.18,0.2c-0.59,0.14-1.26,0.29-2,0.46
		s-1.52,0.35-2.32,0.55s-1.61,0.42-2.43,0.66s-1.58,0.48-2.3,0.73s-1.36,0.51-1.93,0.77S176.44,157.9,176.11,158.18z"/>
	<path fill="none" stroke="#FFFFFF" stroke-miterlimit="10" d="M194.18,171.4c0.7-2.16,1.38-4.23,2.02-6.21s1.21-3.82,1.7-5.51
		s0.88-3.18,1.17-4.48s0.45-2.33,0.48-3.09c0.19-0.73,0.52-1.32,1-1.76s1.03-0.66,1.65-0.66c0.38,0,0.7,0.09,0.96,0.26
		s0.48,0.4,0.64,0.68s0.29,0.6,0.36,0.95s0.12,0.71,0.12,1.07c0,0.27-0.02,0.51-0.05,0.73s-0.07,0.43-0.12,0.63
		c-0.36,1.44-0.79,2.92-1.29,4.45s-1.01,3.08-1.54,4.65s-1.04,3.14-1.56,4.72s-0.98,3.13-1.38,4.64l-0.42,1.59
		c-0.22,0.81-0.41,1.59-0.56,2.32s-0.23,1.33-0.23,1.78c0,0.25,0.05,0.45,0.14,0.6s0.27,0.22,0.54,0.22c0.64,0,1.39-0.11,2.25-0.32
		s1.75-0.47,2.67-0.77s1.84-0.64,2.75-1.01s1.75-0.71,2.52-1.04c0.41-0.17,0.75-0.32,1.04-0.45s0.65-0.28,1.08-0.46
		s1-0.42,1.72-0.71s1.71-0.71,2.98-1.24c0.22-0.08,0.41-0.14,0.57-0.2s0.32-0.08,0.46-0.08c0.25,0,0.46,0.05,0.64,0.14
		s0.32,0.22,0.42,0.38s0.18,0.34,0.22,0.54s0.07,0.41,0.07,0.61c0,0.34-0.03,0.64-0.08,0.9s-0.11,0.47-0.18,0.64
		c-0.19,0.3-0.43,0.57-0.73,0.81s-0.61,0.45-0.94,0.63s-0.65,0.33-0.96,0.46s-0.57,0.22-0.77,0.28c-0.25,0.09-0.58,0.22-1,0.38
		s-0.86,0.33-1.35,0.52s-0.98,0.38-1.5,0.57s-1,0.38-1.45,0.55s-0.86,0.32-1.21,0.46s-0.6,0.22-0.74,0.27
		c-0.67,0.25-1.42,0.53-2.24,0.84s-1.64,0.61-2.45,0.89s-1.58,0.52-2.31,0.71s-1.33,0.29-1.82,0.29c-0.59,0-1.06-0.05-1.39-0.14
		s-0.64-0.22-0.9-0.39s-0.54-0.36-0.81-0.6s-0.64-0.49-1.09-0.77c-0.41-0.25-0.7-0.59-0.87-1.03s-0.26-0.91-0.26-1.41
		c0-0.25,0.02-0.54,0.06-0.87s0.09-0.67,0.15-1.03s0.13-0.71,0.21-1.05s0.16-0.65,0.26-0.91L194.18,171.4z"/>
	<path fill="none" stroke="#FFFFFF" stroke-miterlimit="10" d="M241.1,183.75c-0.33,0-0.62-0.06-0.87-0.19s-0.46-0.29-0.62-0.49
		s-0.29-0.44-0.38-0.7s-0.13-0.53-0.13-0.8c0-0.23,0.06-0.56,0.19-0.97s0.29-0.88,0.48-1.39s0.41-1.05,0.64-1.62s0.46-1.1,0.68-1.62
		s0.41-0.99,0.56-1.43s0.27-0.78,0.33-1.03c0.06-0.28,0.14-0.62,0.23-1.01s0.2-0.82,0.32-1.28s0.23-0.95,0.35-1.45
		s0.24-1.02,0.36-1.54c-0.22,0.05-0.49,0.09-0.81,0.13s-0.66,0.07-1.02,0.11c-0.52,0.05-1.02,0.12-1.52,0.21s-1.01,0.2-1.54,0.32
		s-1.07,0.24-1.63,0.38s-1.16,0.27-1.8,0.41c-0.94,0.2-1.88,0.43-2.81,0.68s-1.91,0.38-2.93,0.38c-0.31,0-0.6-0.08-0.87-0.25
		s-0.56-0.29-0.89-0.36c-0.31,0.5-0.61,1.04-0.89,1.61s-0.54,1.16-0.77,1.76s-0.45,1.2-0.63,1.78s-0.35,1.14-0.49,1.65
		c-0.08,0.28-0.14,0.64-0.2,1.09s-0.11,0.9-0.15,1.36s-0.09,0.9-0.14,1.32s-0.09,0.76-0.14,1.01c-0.05,0.23-0.14,0.46-0.28,0.69
		s-0.31,0.43-0.52,0.62s-0.43,0.34-0.68,0.46s-0.5,0.18-0.75,0.18c-0.44,0-0.79-0.13-1.07-0.39s-0.49-0.58-0.66-0.96
		s-0.28-0.8-0.34-1.25s-0.09-0.87-0.09-1.24c0-0.95,0.12-1.94,0.35-2.96s0.55-2.06,0.95-3.12s0.87-2.12,1.41-3.19
		s1.12-2.14,1.75-3.2c0.52-0.95,1.16-2.05,1.92-3.3s1.62-2.54,2.57-3.86s1.97-2.61,3.07-3.88s2.25-2.39,3.43-3.39
		s2.41-1.79,3.66-2.4s2.49-0.91,3.73-0.91c1.3,0,2.38,0.23,3.25,0.7s1.56,1.1,2.07,1.9s0.88,1.73,1.09,2.79s0.32,2.19,0.32,3.38
		c0,1.05-0.07,2.13-0.2,3.23s-0.3,2.2-0.49,3.26s-0.41,2.09-0.63,3.07s-0.43,1.88-0.62,2.67l-0.82,3.19
		c-0.03,0.09-0.09,0.28-0.18,0.56s-0.2,0.62-0.33,1.02s-0.28,0.83-0.45,1.29s-0.33,0.91-0.49,1.36s-0.32,0.86-0.47,1.23
		s-0.28,0.68-0.39,0.91l0.02-0.02c-0.11,0.41-0.23,0.82-0.35,1.24s-0.3,0.8-0.52,1.14s-0.5,0.61-0.84,0.82
		S241.65,183.75,241.1,183.75z M242.3,154.41c-0.7,0-1.4,0.14-2.1,0.43s-1.38,0.67-2.05,1.14s-1.32,1.02-1.96,1.64
		s-1.23,1.27-1.8,1.92s-1.11,1.32-1.61,1.98s-0.95,1.28-1.36,1.84c-0.06,0.09-0.14,0.21-0.25,0.36s-0.2,0.31-0.3,0.49
		s-0.2,0.37-0.29,0.56s-0.17,0.37-0.23,0.53h2.41c0.88,0,1.88-0.06,3-0.19s2.24-0.27,3.34-0.45s2.11-0.35,3.04-0.53
		s1.62-0.32,2.09-0.41c0.06-0.2,0.12-0.48,0.18-0.82s0.11-0.73,0.15-1.15s0.08-0.87,0.11-1.35s0.04-0.96,0.04-1.46
		c0-0.41-0.02-0.87-0.05-1.39s-0.13-1.02-0.28-1.49s-0.39-0.86-0.71-1.18S242.88,154.41,242.3,154.41z"/>
	<path fill="none" stroke="#FFFFFF" stroke-miterlimit="10" d="M253.45,178.08c0.53,0.19,1.07,0.41,1.63,0.66s1.13,0.49,1.72,0.71
		s1.21,0.42,1.86,0.57s1.34,0.23,2.07,0.23c0.86,0,1.73-0.1,2.6-0.3s1.73-0.5,2.57-0.9s1.64-0.88,2.4-1.45s1.47-1.23,2.11-1.98
		c0.7-0.8,1.29-1.52,1.76-2.17s0.85-1.23,1.14-1.73s0.5-0.95,0.62-1.31s0.19-0.68,0.19-0.95c0-0.39-0.13-0.73-0.4-1.02
		s-0.62-0.53-1.07-0.71s-0.95-0.32-1.51-0.41s-1.15-0.13-1.76-0.13c-0.36,0-0.78,0.01-1.27,0.04s-0.98,0.05-1.48,0.07
		s-0.98,0.04-1.45,0.06s-0.88,0.02-1.22,0.02c-0.52,0-1.05-0.06-1.61-0.18s-1.1-0.31-1.63-0.57s-1.02-0.63-1.48-1.08
		s-0.83-1.02-1.13-1.69c-0.09-0.22-0.18-0.48-0.26-0.77s-0.12-0.62-0.12-0.96c0-0.38,0.03-0.73,0.08-1.07s0.12-0.66,0.2-0.97
		c0.22-0.78,0.58-1.57,1.09-2.38s1.12-1.59,1.83-2.36s1.48-1.51,2.32-2.23s1.7-1.39,2.58-2.03s1.75-1.2,2.6-1.71s1.64-0.94,2.38-1.3
		c1.03-0.5,2.08-0.86,3.15-1.09s2.13-0.34,3.18-0.34c0.63,0,1.22,0.08,1.78,0.25s1.06,0.4,1.49,0.71s0.77,0.7,1.02,1.16
		s0.38,0.99,0.38,1.58c0,0.34-0.04,0.63-0.12,0.87s-0.18,0.43-0.3,0.57s-0.26,0.25-0.41,0.32s-0.3,0.09-0.46,0.09
		c-0.42,0-0.81-0.05-1.16-0.14s-0.69-0.2-1.02-0.32s-0.66-0.23-0.98-0.33s-0.69-0.15-1.08-0.15c-1.16,0-2.33,0.23-3.53,0.69
		s-2.36,1.05-3.49,1.76s-2.2,1.5-3.21,2.38s-1.91,1.73-2.71,2.55c-0.42,0.44-0.73,0.88-0.93,1.31s-0.29,0.85-0.29,1.24
		c0,0.58,0.25,1.03,0.75,1.36s1.11,0.49,1.83,0.49c0.42,0,0.9-0.01,1.43-0.02s1.07-0.04,1.63-0.06s1.09-0.05,1.62-0.07
		s0.99-0.04,1.39-0.04c0.97,0,1.9,0.14,2.79,0.41s1.68,0.68,2.37,1.21s1.24,1.19,1.65,1.98s0.62,1.69,0.62,2.71
		c0,0.63-0.09,1.26-0.28,1.9s-0.45,1.29-0.77,1.93s-0.7,1.29-1.13,1.92s-0.87,1.25-1.34,1.86c-0.84,1.09-1.79,2.13-2.82,3.09
		s-2.14,1.81-3.32,2.53s-2.41,1.29-3.71,1.71s-2.64,0.63-4.02,0.63c-0.59,0-1.2-0.05-1.83-0.16s-1.24-0.27-1.85-0.48
		s-1.18-0.48-1.72-0.8s-1.01-0.68-1.42-1.09s-0.73-0.86-0.97-1.35s-0.36-1.03-0.36-1.61c0-0.28,0.04-0.55,0.13-0.81
		S253.11,178.08,253.45,178.08z"/>
	<path fill="none" stroke="#FFFFFF" stroke-miterlimit="10" d="M281.91,182.79c0-0.17,0.03-0.4,0.08-0.69s0.12-0.59,0.2-0.89
		s0.16-0.6,0.25-0.88s0.15-0.51,0.2-0.68l9.49-31.15c0.08-0.11,0.16-0.2,0.26-0.28c0.08-0.08,0.18-0.14,0.32-0.2
		s0.29-0.08,0.48-0.08h0.4c0.34,0,0.63,0.06,0.87,0.18s0.42,0.27,0.56,0.47s0.24,0.42,0.29,0.68s0.08,0.54,0.08,0.83
		c0,0.25-0.02,0.51-0.06,0.79s-0.08,0.54-0.13,0.8s-0.1,0.5-0.15,0.71s-0.1,0.39-0.13,0.52l-4.88,16.64l2.23-0.21
		c2.48-0.55,5.02-1.11,7.61-1.7s5.12-1.15,7.61-1.7c0.28-0.14,0.53-0.43,0.75-0.87s0.43-1.01,0.64-1.71s0.44-1.53,0.69-2.47
		s0.55-2,0.91-3.15l0.49-1.62c0.2-0.78,0.39-1.58,0.55-2.4s0.36-1.57,0.6-2.24s0.53-1.22,0.89-1.65s0.82-0.64,1.38-0.64
		c0.8,0,1.41,0.25,1.85,0.76s0.66,1.14,0.66,1.91c0,0.48-0.18,1.3-0.55,2.44s-0.82,2.53-1.37,4.17c-0.2,0.61-0.42,1.23-0.66,1.88
		s-0.45,1.25-0.64,1.84s-0.36,1.13-0.48,1.62s-0.19,0.89-0.19,1.18c0,0.28,0.04,0.56,0.12,0.83s0.12,0.57,0.12,0.88
		c0,0.7-0.19,1.29-0.56,1.76s-0.89,0.95-1.55,1.43c-0.03,0.13-0.07,0.32-0.13,0.59s-0.12,0.54-0.2,0.82l-0.3,1.2
		c-0.22,0.86-0.4,1.72-0.55,2.58s-0.28,1.71-0.4,2.55s-0.24,1.69-0.38,2.53s-0.3,1.68-0.5,2.51c-0.08,0.31-0.21,0.59-0.41,0.83
		s-0.42,0.45-0.68,0.62s-0.53,0.3-0.81,0.4s-0.55,0.14-0.8,0.14c-0.38,0-0.68-0.09-0.91-0.26s-0.42-0.38-0.55-0.61
		s-0.22-0.48-0.27-0.73s-0.07-0.46-0.07-0.63c0-0.19,0.03-0.5,0.08-0.93s0.13-0.93,0.22-1.51s0.2-1.2,0.33-1.88s0.25-1.35,0.38-2.04
		c0.3-1.59,0.64-3.34,1.03-5.23h-0.16c-0.41,0-0.84,0.04-1.31,0.13s-1.03,0.21-1.69,0.36c-0.3,0.09-0.74,0.22-1.32,0.38
		s-1.25,0.34-2,0.54s-1.56,0.42-2.43,0.66s-1.73,0.47-2.59,0.7l-6.35,1.73c-0.3,0.61-0.57,1.27-0.83,1.98s-0.5,1.43-0.71,2.16
		s-0.42,1.44-0.6,2.14s-0.35,1.37-0.5,1.99c-0.05,0.17-0.14,0.36-0.29,0.56s-0.32,0.39-0.52,0.56s-0.4,0.31-0.61,0.42
		s-0.41,0.16-0.6,0.16c-0.34,0-0.63-0.07-0.86-0.22s-0.41-0.34-0.55-0.59s-0.24-0.52-0.29-0.82S281.91,183.09,281.91,182.79z"/>
	<path fill="none" stroke="#FFFFFF" stroke-miterlimit="10" d="M324.12,179.7c0,1.08-0.41,2.01-1.24,2.8s-1.77,1.18-2.84,1.18
		c-0.81,0-1.5-0.29-2.07-0.86s-0.86-1.26-0.86-2.07c0-1.08,0.43-2.03,1.3-2.85s1.82-1.23,2.87-1.23c0.81,0,1.49,0.29,2.03,0.87
		S324.12,178.84,324.12,179.7z M331.9,150.57c0,0.66-0.32,1.65-0.96,2.98c-0.48,1.02-1.44,3.43-2.87,7.25s-2.3,6.18-2.61,7.09
		s-0.59,2.02-0.84,3.33c-0.2,1.02-0.91,1.52-2.11,1.52c-1.55,0-2.32-0.77-2.32-2.3c0-1.61,0.96-4.7,2.87-9.27s3.39-7.7,4.42-9.4
		s2.02-2.54,2.98-2.54C331.41,149.23,331.9,149.68,331.9,150.57z"/>
</g>

</svg>
